<?xml version="1.0" standalone="no"?>
<!DOCTYPE svg PUBLIC "-//W3C//DTD SVG 20010904//EN"
 "http://www.w3.org/TR/2001/REC-SVG-20010904/DTD/svg10.dtd">
<svg version="1.0" xmlns="http://www.w3.org/2000/svg"
 width="16.000000pt" height="16.000000pt" viewBox="0 0 16.000000 16.000000"
 preserveAspectRatio="xMidYMid meet">
<metadata>
Created by potrace 1.11, written by Peter Selinger 2001-2013
</metadata>
<g transform="translate(0.000000,16.000000) scale(0.006400,-0.006400)"
fill="#000000" stroke="none">
<path d="M1119 2430 c-149 -18 -340 -80 -460 -150 -195 -115 -366 -296 -464
-490 -197 -393 -159 -878 96 -1227 55 -74 188 -207 262 -262 407 -298 988
-295 1392 6 233 174 391 419 456 708 29 129 31 339 5 460 -58 267 -157 447
-348 631 -154 148 -307 235 -508 288 -155 41 -289 52 -431 36z m323 -25 c241
-42 451 -149 622 -319 179 -178 283 -376 332 -633 24 -130 15 -354 -20 -485
-33 -125 -90 -256 -151 -349 -59 -89 -247 -280 -330 -334 -351 -229 -789 -257
-1165 -75 -444 216 -708 713 -639 1206 23 165 96 357 190 496 54 81 195 226
279 287 147 108 329 182 530 214 63 10 275 6 352 -8z"/>
<path d="M1150 2385 c-8 -2 -49 -9 -90 -15 -166 -27 -350 -103 -480 -200 -84
-62 -213 -196 -269 -279 -141 -207 -217 -500 -191 -732 26 -229 96 -412 218
-575 222 -294 549 -458 912 -457 226 1 436 65 629 190 82 54 260 236 319 327
133 204 201 486 174 718 -33 278 -139 503 -328 692 -177 177 -389 283 -644
322 -85 12 -209 17 -250 9z m-126 -363 l189 -48 -115 -125 c-142 -152 -164
-173 -177 -164 -6 3 -11 21 -11 40 0 64 -7 68 -57 32 -113 -80 -215 -227 -249
-358 -23 -86 -23 -236 0 -313 10 -32 14 -62 9 -66 -13 -11 -135 -61 -139 -57
-2 2 -13 39 -25 83 -27 102 -29 278 -5 379 9 39 39 116 66 171 59 121 164 240
276 314 l71 46 -24 48 c-22 42 -23 66 -5 66 4 0 92 -22 196 -48z m440 -2 c324
-83 571 -373 602 -708 l7 -72 48 0 c26 0 50 -4 54 -9 5 -9 -245 -292 -263
-299 -4 -1 -36 81 -71 183 -73 213 -73 223 9 185 27 -13 53 -21 56 -17 14 13
-28 167 -67 247 -79 160 -257 303 -424 341 -49 11 -55 15 -55 38 0 48 13 131
20 131 4 0 41 -9 84 -20z m-634 -1206 c167 -37 200 -47 200 -64 0 -5 -23 -25
-51 -44 -59 -39 -61 -37 61 -81 152 -54 335 -44 486 29 78 38 183 114 212 153
l20 27 49 -42 c81 -67 80 -62 15 -124 -73 -69 -135 -112 -227 -154 -209 -97
-470 -100 -680 -8 -44 20 -84 37 -90 40 -5 2 -20 -14 -33 -36 -24 -42 -47 -52
-56 -22 -3 9 -26 91 -51 182 -25 91 -48 171 -50 178 -3 9 1 12 13 8 9 -3 91
-22 182 -42z"/>
</g>
</svg>
